<svg width="13" height="20" viewBox="0 0 13 20" fill="#E3E3E3" xmlns="http://www.w3.org/2000/svg">
<path d="M5 17.5C5 18.875 3.875 20 2.5 20C1.125 20 0 18.875 0 17.5C0 16.125 1.125 15 2.5 15C3.875 15 5 16.125 5 17.5ZM2.5 7.5C1.125 7.5 0 8.625 0 10C0 11.375 1.125 12.5 2.5 12.5C3.875 12.5 5 11.375 5 10C5 8.625 3.875 7.5 2.5 7.5ZM2.5 0C1.125 0 0 1.125 0 2.5C0 3.875 1.125 5 2.5 5C3.875 5 5 3.875 5 2.5C5 1.125 3.875 0 2.5 0ZM10 5C11.375 5 12.5 3.875 12.5 2.5C12.5 1.125 11.375 0 10 0C8.625 0 7.5 1.125 7.5 2.5C7.5 3.875 8.625 5 10 5ZM10 7.5C8.625 7.5 7.5 8.625 7.5 10C7.5 11.375 8.625 12.5 10 12.5C11.375 12.5 12.5 11.375 12.5 10C12.5 8.625 11.375 7.5 10 7.5ZM10 15C8.625 15 7.5 16.125 7.5 17.5C7.5 18.875 8.625 20 10 20C11.375 20 12.5 18.875 12.5 17.5C12.5 16.125 11.375 15 10 15Z" fill="#E3E3E3"/>
</svg>
