<?xml version="1.0" encoding="UTF-8"?><svg id="Camada_2" xmlns="http://www.w3.org/2000/svg" xmlns:xlink="http://www.w3.org/1999/xlink" viewBox="0 0 394.29 114.37"><defs><style>.cls-1{clip-path:url(#clippath);}.cls-2{fill:none;}.cls-3{fill:#fff;}.cls-3,.cls-4{stroke:#322;stroke-miterlimit:10;stroke-width:3px;}.cls-4{fill:#e03b3b;font-family:PokemonSolidNormal, 'Pokemon Solid';font-size:66.34px;}</style><clipPath id="clippath"><rect class="cls-2" y="46.14" width="394.29" height="68.23"/></clipPath></defs><g id="Camada_1-2"><text class="cls-4" transform="translate(41.38 65.85)"><tspan x="0" y="0">Dextrivia</tspan></text><g class="cls-1"><g><path class="cls-3" d="M82.52,15.71c1.02,2.03,1.86,4.13,2.54,6.3,.68,2.17,1.18,4.34,1.49,6.5,.31,2.16,.47,4.29,.47,6.38,0,3.76-.5,7.36-1.51,10.82-1,3.46-2.45,6.55-4.33,9.28s-4.15,4.95-6.82,6.66c-2.67,1.71-5.62,2.75-8.86,3.14l-13.51,2.4-4.54-41.66c-.15,0-.68,.57-1.59,1.72s-1.44,1.72-1.59,1.72c-.47-.32-.89-1.24-1.25-2.75-.36-1.51-.86-3.87-1.52-7.06-.66-3.2-1.15-5.14-1.47-5.83,4.99-1.62,9.69-2.93,14.09-3.94,4.41-1,8.51-1.51,12.31-1.51,8.16,0,13.52,2.61,16.07,7.84Zm-12.73,5.83c-1.79-.63-3.22-.94-4.28-.94-1.47,0-2.88,.49-4.24,1.46l1.62,29.48c3.65-1.58,6.08-3.14,7.3-4.68,1.22-1.54,1.96-2.82,2.22-3.84,.22-.47,.44-1.65,.66-3.53s.34-3.97,.34-6.28c0-3.02-.28-5.61-.83-7.76-.55-2.15-1.49-3.45-2.8-3.9Z"/><path class="cls-3" d="M114.37,47.94l7.81,9.43c-.63,1.81-2.11,3.48-4.45,4.99-2.34,1.51-5.13,2.71-8.36,3.58s-6.45,1.31-9.67,1.31c-2.85,0-5.39-.38-7.63-1.13-2.24-.75-3.96-1.9-5.17-3.43-2.1-2.63-3.14-6-3.14-10.11,0-3.24,.59-6.43,1.77-9.57s2.42-5.34,3.74-6.59c1.58-1.49,3.29-2.73,5.13-3.73s3.76-1.74,5.75-2.24c1.99-.5,4.03-.75,6.12-.75,2.74,0,5.35,.44,7.82,1.31,2.47,.87,4.64,2.14,6.5,3.81l-17.79,21.22c1.58,0,3.07-.33,4.49-.99,1.42-.66,2.72-1.6,3.9-2.82,1.19-1.22,2.25-2.65,3.17-4.29Zm-8.97-7.55c-1.06-.54-2.14-.81-3.24-.81-1.17,0-2.29,.24-3.39,.71-1.09,.48-1.86,1.04-2.32,1.68-1.34,1.73-2.01,3.63-2.01,5.7,0,.76,.08,1.48,.23,2.17,.15,.69,.41,1.64,.78,2.85l9.95-12.31Z"/><path class="cls-3" d="M140.9,59.7l-7.84,10.14-16.72,.52,16.2-21.41-18.3-23.68,17.75,.78,8.91,11.76,8.88-11.76,17.79-.78-18.3,23.68,16.2,21.41-16.75-.52-7.81-10.14Z"/><path class="cls-3" d="M170.22,9.06l14.16-6.38-.23,21.77,10.56,.26v12.47l-10.95,.13c-.39,3.07-.58,5.95-.58,8.65,0,2.25,.13,4.1,.39,5.57,.22,1.21,.76,2.14,1.62,2.79,.86,.65,1.87,.97,3.01,.97,1.27,0,2.39-.38,3.35-1.13s1.44-1.79,1.44-3.11c0-.19-.04-.57-.13-1.13l10.59-6.9c.45,.84,1.02,2.26,1.7,4.24,.68,1.99,1.02,4.16,1.02,6.51,0,2.83-.75,5.39-2.24,7.68s-4.04,4.03-7.64,5.21c-2.53,.82-4.91,1.23-7.16,1.23-3.39,0-6.38-.75-8.96-2.24-2.58-1.49-4.72-3.28-6.43-5.38-.8-.97-1.42-2.58-1.86-4.83-.44-2.25-.73-4.59-.86-7.03-.13-2.44-.19-4.88-.19-7.32v-3.66l-9.56,.29-2.4-14.61,12.08,.81-.75-14.87Z"/><path class="cls-3" d="M243.82,34.27l-11.44,7.45c-.56-1.45-1.31-2.68-2.25-3.71s-1.91-1.54-2.9-1.54c-1.43,0-2.62,1.12-3.6,3.37-.93,2.16-1.39,5.94-1.39,11.34,0,3.78,.19,8.23,.58,13.35l-15.91,1.85c-.93-6.67-1.39-12.62-1.39-17.85,0-.86,.04-2.05,.13-3.56l-.58-18.92,12.73-1.59,1.85,2.14c1.51-.52,2.91-.96,4.19-1.33s2.49-.66,3.61-.88,2.21-.32,3.27-.32c2.14,0,4.02,.49,5.64,1.46,2.05,1.14,3.68,2.33,4.88,3.56,1.2,1.23,2.06,2.96,2.58,5.18Z"/><path class="cls-3" d="M259.59,71.94l-14.61,.81-.78-34.76-4.79,1.07,1.59-7.97,16.46-6.9,2.14,47.75ZM248.97,4.56c1.53,0,2.86,.25,3.97,.76,1.11,.51,2.02,1.12,2.74,1.85s1.2,1.36,1.46,1.9c.26,.58,.39,1.22,.39,1.91,0,1.06-.23,2.13-.68,3.22-.45,1.09-1,2.03-1.65,2.8-.65,.78-1.26,1.23-1.85,1.36-1.12,.17-1.97,.26-2.53,.26-1.42,0-2.67-.25-3.72-.75-1.06-.5-1.9-1.22-2.53-2.17s-1.01-2.06-1.17-3.34c0-1.83,.45-3.55,1.34-5.15,.9-1.6,2.3-2.48,4.23-2.66Z"/><path class="cls-3" d="M255.22,25.26l17.75,.78,7.71,20.44,7.71-19.89,16.42,1.59-16.72,42.18-15.39-.52-17.49-44.57Z"/><path class="cls-3" d="M322.63,71.94l-14.61,.81-.78-34.76-4.79,1.07,1.59-7.97,16.46-6.9,2.14,47.75Zm-10.62-67.38c1.53,0,2.86,.25,3.97,.76,1.11,.51,2.02,1.12,2.74,1.85s1.2,1.36,1.46,1.9c.26,.58,.39,1.22,.39,1.91,0,1.06-.23,2.13-.68,3.22-.45,1.09-1,2.03-1.65,2.8-.65,.78-1.26,1.23-1.85,1.36-1.12,.17-1.97,.26-2.53,.26-1.42,0-2.67-.25-3.72-.75-1.06-.5-1.9-1.22-2.53-2.17s-1.01-2.06-1.17-3.34c0-1.83,.45-3.55,1.34-5.15,.9-1.6,2.3-2.48,4.23-2.66Z"/><path class="cls-3" d="M343.46,28.44l13.54-6.09,.26,18.11c.17,1.12,.26,2.4,.26,3.82,0,1.25-.04,2.18-.13,2.79l.39,19.86-14.58,.78v-1.98c-2.38,.97-4.77,1.46-7.19,1.46-1.86,0-3.6-.28-5.23-.84-1.63-.56-3.04-1.32-4.23-2.27-1.92-1.6-3.42-3.75-4.5-6.46-1.08-2.71-1.62-5.58-1.62-8.6,0-5.21,1.5-9.41,4.5-12.6,2.59-2.72,5.26-4.78,8.02-6.19,2.75-1.4,5.57-2.11,8.44-2.11,.8,0,1.4,.02,1.81,.06l.26,.26Zm-.26,5.7c-1.19,.15-2.36,.53-3.51,1.13s-2.14,1.32-2.96,2.14-1.46,1.72-1.93,2.71c-.46,.98-.7,1.95-.7,2.9,0,1.96,.93,3.56,2.79,4.79,1.64,1.1,3.3,1.65,4.99,1.65,.32,0,.77-.04,1.33-.13v-6.9c-.58,0-1.1-.15-1.55-.45-.65-.52-.97-1.51-.97-2.98,0-2.12,.84-3.74,2.53-4.86Z"/></g></g></g></svg>