<svg width="55" height="55" viewBox="0 0 55 55" fill="none" xmlns="http://www.w3.org/2000/svg">
<rect x="12" y="11" width="34" height="35" fill="white"/>
<path d="M55 27.5C55 42.6915 42.6915 55 27.5 55C12.3085 55 0 42.6915 0 27.5C0 12.3085 12.3085 0 27.5 0C42.6915 0 55 12.3085 55 27.5ZM22.621 14.6371V27.5H14.7591C13.5726 27.5 12.9738 28.9415 13.8165 29.7732L26.5575 42.4476C27.0786 42.9687 27.9103 42.9687 28.4315 42.4476L41.1724 29.7732C42.0151 28.9304 41.4163 27.5 40.2298 27.5H32.379V14.6371C32.379 13.9052 31.7802 13.3065 31.0484 13.3065H23.9516C23.2198 13.3065 22.621 13.9052 22.621 14.6371Z" fill="#8FA09F"/>
</svg>
