<?xml version="1.0" encoding="utf-8"?>
<!-- Generator: Adobe Illustrator 27.1.1, SVG Export Plug-In . SVG Version: 6.00 Build 0)  -->
<svg version="1.1" id="Camada_1" xmlns="http://www.w3.org/2000/svg" xmlns:xlink="http://www.w3.org/1999/xlink" x="0px" y="0px"
	 viewBox="0 0 112 112" style="enable-background:new 0 0 112 112;" xml:space="preserve">
<style type="text/css">
	.st0{fill:#FD1F1F;stroke:#FD1F1F;}
	.st1{fill:#FD1F1F;}
</style>
<path class="st0" d="M110.9,45H93.4C88.7,28.8,73.7,17,56,17S23.3,28.8,18.6,45H1.1C6.2,19.3,28.8,0,56,0S105.8,19.3,110.9,45z"/>
<path class="st0" d="M111.3,65C107,91.7,83.9,112,56,112S5,91.7,0.7,65H18c4.1,17.2,19.5,30,38,30s33.9-12.8,38-30H111.3z"/>
<g>
	<path class="st1" d="M34.4,46.2L34.4,46.2c-0.2,1.1,0.7,2.2,1.8,2.2h7.8l-2.4,13.3h-8.4c-0.4,0-0.8,0.2-1.2,0.4
		c-0.3,0.3-0.6,0.7-0.6,1.1l-0.8,4.5l0.5,0.1l-0.5-0.1c-0.2,1.1,0.7,2.2,1.8,2.2h7.8l-1.5,8.6l0.5,0.1l-0.5-0.1
		c-0.2,1.1,0.7,2.2,1.8,2.2h4.5c0.4,0,0.8-0.2,1.2-0.4c0.3-0.3,0.6-0.7,0.6-1.1l1.6-9.2h10l-1.5,8.6c-0.2,1.1,0.7,2.2,1.8,2.2h4.5
		c0.4,0,0.8-0.2,1.2-0.4c0.3-0.3,0.6-0.7,0.6-1.1l1.6-9.2H75c0.4,0,0.8-0.2,1.2-0.4c0.3-0.3,0.6-0.7,0.6-1.1l0.8-4.5
		c0.2-1.1-0.7-2.2-1.8-2.2h-7.8l2.4-13.3h8.4c0.4,0,0.8-0.2,1.2-0.4c0.3-0.3,0.6-0.7,0.6-1.1l0.8-4.5c0.2-1.1-0.7-2.2-1.8-2.2h-7.8
		l1.5-8.6c0.2-1.1-0.7-2.2-1.8-2.2h-4.5c-0.4,0-0.8,0.2-1.2,0.4c-0.3,0.3-0.6,0.7-0.6,1.1l-1.6,9.2h-10l1.5-8.6
		c0.2-1.1-0.7-2.2-1.8-2.2h-4.5c-0.4,0-0.8,0.2-1.2,0.4c-0.3,0.3-0.6,0.7-0.6,1.1l0,0l-1.6,9.2H37c-0.4,0-0.8,0.2-1.2,0.4
		c-0.3,0.3-0.6,0.7-0.6,1.1l0,0L34.4,46.2z M62.2,48.4l-2.4,13.3h-10l2.4-13.3H62.2z"/>
	<path class="st1" d="M63.2,81h-4.5c-0.7,0-1.3-0.3-1.8-0.8c-0.4-0.5-0.6-1.2-0.5-1.9l1.4-8h-9l-1.6,8.8c-0.1,0.5-0.4,1-0.8,1.4
		c-0.4,0.4-1,0.5-1.5,0.5h-4.5c-0.7,0-1.3-0.3-1.8-0.8c-0.3-0.4-0.5-0.9-0.5-1.4l-0.1,0l0.1-0.5c0,0,0,0,0,0l0,0l1.4-8h-7.2
		c-0.7,0-1.3-0.3-1.8-0.8C30.2,69,30,68.6,30,68l-0.1,0l0.9-5c0.1-0.5,0.4-1,0.8-1.4c0.4-0.4,1-0.5,1.5-0.5h8l2.2-12.3h-7.2
		c-0.7,0-1.3-0.3-1.8-0.8s-0.6-1.2-0.5-1.9l0.8-4.5c0.1-0.5,0.4-1,0.8-1.4c0.4-0.4,1-0.5,1.5-0.5h8l1.6-8.8c0.1-0.5,0.4-1,0.8-1.4
		c0.4-0.4,1-0.5,1.5-0.5h4.5c0.7,0,1.3,0.3,1.8,0.8c0.4,0.5,0.6,1.2,0.5,1.9l-1.4,8h9l1.6-8.8c0.1-0.5,0.4-1,0.8-1.4
		c0.4-0.4,1-0.5,1.5-0.5h4.5c0.7,0,1.3,0.3,1.8,0.8c0.4,0.5,0.6,1.2,0.5,1.9l-1.4,8h7.2c0.7,0,1.3,0.3,1.8,0.8
		c0.4,0.5,0.6,1.2,0.5,1.9l-0.8,4.5c-0.1,0.5-0.4,1-0.8,1.4c-0.4,0.4-1,0.5-1.5,0.5h-8l-2.2,12.3h7.2c0.7,0,1.3,0.3,1.8,0.8
		c0.4,0.5,0.6,1.2,0.5,1.9l-0.8,4.5c-0.1,0.5-0.4,1-0.8,1.4c-0.4,0.4-1,0.5-1.5,0.5h-8l-1.6,8.8c-0.1,0.5-0.4,1-0.8,1.4
		C64.3,80.8,63.7,81,63.2,81z M47.9,69.3h11l-1.6,9.1c-0.1,0.4,0,0.8,0.3,1.1c0.3,0.3,0.6,0.5,1,0.5h4.5c0.3,0,0.6-0.1,0.9-0.3
		c0.2-0.2,0.4-0.5,0.5-0.8l1.7-9.6H75c0.3,0,0.6-0.1,0.9-0.3c0.2-0.2,0.4-0.5,0.5-0.8l0.8-4.5c0.1-0.4,0-0.8-0.3-1.1
		c-0.3-0.3-0.6-0.5-1-0.5h-8.3L70,47.9h8.8c0.3,0,0.6-0.1,0.9-0.3c0.2-0.2,0.4-0.5,0.5-0.8l0.8-4.5c0.1-0.4,0-0.8-0.3-1.1
		c-0.3-0.3-0.6-0.5-1-0.5h-8.3l1.6-9.1c0.1-0.4,0-0.8-0.3-1.1c-0.3-0.3-0.6-0.5-1-0.5h-4.5c-0.3,0-0.6,0.1-0.9,0.3
		c-0.2,0.2-0.4,0.5-0.5,0.8l-1.7,9.6H53l1.6-9.1c0.1-0.4,0-0.8-0.3-1.1c-0.3-0.3-0.6-0.5-1-0.5h-4.5c-0.3,0-0.6,0.1-0.9,0.3
		c-0.2,0.2-0.4,0.5-0.5,0.8l-1.7,9.6H37c-0.3,0-0.6,0.1-0.9,0.3c-0.2,0.2-0.4,0.5-0.5,0.8l-0.8,4.5c-0.1,0.4,0,0.8,0.3,1.1
		c0.3,0.3,0.6,0.5,1,0.5h8.3L42,62.1h-8.8c-0.3,0-0.6,0.1-0.9,0.3s-0.4,0.5-0.5,0.8L31,67.7c-0.1,0.4,0,0.8,0.3,1.1
		c0.3,0.3,0.6,0.5,1,0.5h8.3l-1.6,9.1l0,0l0,0c-0.1,0.4,0,0.8,0.3,1.1c0.3,0.3,0.6,0.5,1,0.5h4.5c0.3,0,0.6-0.1,0.9-0.3
		c0.2-0.2,0.4-0.5,0.5-0.8L47.9,69.3z M60.2,62.1h-11l2.6-14.3h11L60.2,62.1z M50.4,61.1h9l2.2-12.3h-9L50.4,61.1z"/>
</g>
</svg>
