<svg id="eSyin0sLFUj1" xmlns="http://www.w3.org/2000/svg" xmlns:xlink="http://www.w3.org/1999/xlink" viewBox="0 0 112 112" shape-rendering="geometricPrecision" text-rendering="geometricPrecision" width="112" height="112">
<style><![CDATA[
#eSyin0sLFUj2_tr {animation: eSyin0sLFUj2_tr__tr 1000ms linear infinite normal forwards}@keyframes eSyin0sLFUj2_tr__tr { 0% {transform: translate(56.000003px,56px) rotate(0deg)} 100% {transform: translate(56.000003px,56px) rotate(360deg)}} #eSyin0sLFUj5_ts {animation: eSyin0sLFUj5_ts__ts 1000ms linear infinite normal forwards}@keyframes eSyin0sLFUj5_ts__ts { 0% {transform: translate(55.96274px,54.999998px) scale(1,1)} 50% {transform: translate(55.96274px,54.999998px) scale(0.837187,0.837187)} 100% {transform: translate(55.96274px,54.999998px) scale(1,1)}}
]]></style>
<g id="eSyin0sLFUj2_tr" transform="translate(56.000003,56) rotate(0)"><g transform="translate(-56.000003,-56)"><path d="M110.9,45h-17.5C88.7,28.8,73.7,17,56,17s-32.7,11.8-37.4,28h-17.5C6.2,19.3,28.8,0,56,0s49.8,19.3,54.9,45Z" fill="#fd1f1f" stroke="#fd1f1f"/><path d="M111.3,65C107,91.7,83.9,112,56,112s-51-20.3-55.3-47h17.3c4.1,17.2,19.5,30,38,30s33.9-12.8,38-30h17.3Z" fill="#fd1f1f" stroke="#fd1f1f"/></g></g><g id="eSyin0sLFUj5_ts" transform="translate(55.96274,54.999998) scale(1,1)"><g transform="translate(-55.96274,-54.999998)"><path d="M34.4,46.2v0c-.2,1.1.7,2.2,1.8,2.2h7.8L41.6,61.7h-8.4c-.4,0-.8.2-1.2.4-.3.3-.6.7-.6,1.1l-.8,4.5.5.1-.5-.1c-.2,1.1.7,2.2,1.8,2.2h7.8l-1.5,8.6.5.1-.5-.1c-.2,1.1.7,2.2,1.8,2.2h4.5c.4,0,.8-.2,1.2-.4.3-.3.6-.7.6-1.1L48.4,70h10l-1.5,8.6c-.2,1.1.7,2.2,1.8,2.2h4.5c.4,0,.8-.2,1.2-.4.3-.3.6-.7.6-1.1l1.6-9.2h8.4c.4,0,.8-.2,1.2-.4.3-.3.6-.7.6-1.1l.8-4.5c.2-1.1-.7-2.2-1.8-2.2h-7.8l2.4-13.3h8.4c.4,0,.8-.2,1.2-.4.3-.3.6-.7.6-1.1l.8-4.5c.2-1.1-.7-2.2-1.8-2.2h-7.8l1.5-8.6c.2-1.1-.7-2.2-1.8-2.2h-4.5c-.4,0-.8.2-1.2.4-.3.3-.6.7-.6,1.1l-1.6,9.2h-10l1.5-8.6c.2-1.1-.7-2.2-1.8-2.2h-4.5c-.4,0-.8.2-1.2.4-.3.3-.6.7-.6,1.1v0l-1.6,9.2h-8.4c-.4,0-.8.2-1.2.4-.3.3-.6.7-.6,1.1v0l-.8,4.5Zm27.8,2.2L59.8,61.7h-10l2.4-13.3h10Z" fill="#fd1f1f"/><path d="M63.2,81h-4.5c-.7,0-1.3-.3-1.8-.8-.4-.5-.6-1.2-.5-1.9l1.4-8h-9l-1.6,8.8c-.1.5-.4,1-.8,1.4s-1,.5-1.5.5h-4.5c-.7,0-1.3-.3-1.8-.8-.3-.4-.5-.9-.5-1.4h-.1l.1-.5c0,0,0,0,0,0v0l1.4-8h-7.2c-.7,0-1.3-.3-1.8-.8-.3-.5-.5-.9-.5-1.5h-.1l.9-5c.1-.5.4-1,.8-1.4s1-.5,1.5-.5h8l2.2-12.3h-7.2c-.7,0-1.3-.3-1.8-.8s-.6-1.2-.5-1.9l.8-4.5c.1-.5.4-1,.8-1.4s1-.5,1.5-.5h8l1.6-8.8c.1-.5.4-1,.8-1.4s1-.5,1.5-.5h4.5c.7,0,1.3.3,1.8.8.4.5.6,1.2.5,1.9l-1.4,8h9l1.6-8.8c.1-.5.4-1,.8-1.4s1-.5,1.5-.5h4.5c.7,0,1.3.3,1.8.8.4.5.6,1.2.5,1.9l-1.4,8h7.2c.7,0,1.3.3,1.8.8.4.5.6,1.2.5,1.9l-.8,4.5c-.1.5-.4,1-.8,1.4s-1,.5-1.5.5h-8L68.7,61.1h7.2c.7,0,1.3.3,1.8.8.4.5.6,1.2.5,1.9l-.8,4.5c-.1.5-.4,1-.8,1.4s-1,.5-1.5.5h-8L65.5,79c-.1.5-.4,1-.8,1.4s-1,.6-1.5.6ZM47.9,69.3h11l-1.6,9.1c-.1.4,0,.8.3,1.1s.6.5,1,.5h4.5c.3,0,.6-.1.9-.3.2-.2.4-.5.5-.8l1.7-9.6h8.8c.3,0,.6-.1.9-.3.2-.2.4-.5.5-.8l.8-4.5c.1-.4,0-.8-.3-1.1s-.6-.5-1-.5h-8.3L70,47.9h8.8c.3,0,.6-.1.9-.3.2-.2.4-.5.5-.8l.8-4.5c.1-.4,0-.8-.3-1.1s-.6-.5-1-.5h-8.3L73,31.6c.1-.4,0-.8-.3-1.1s-.6-.5-1-.5h-4.5c-.3,0-.6.1-.9.3-.2.2-.4.5-.5.8l-1.7,9.6h-11.1l1.6-9.1c.1-.4,0-.8-.3-1.1s-.6-.5-1-.5h-4.5c-.3,0-.6.1-.9.3-.2.2-.4.5-.5.8l-1.7,9.6h-8.7c-.3,0-.6.1-.9.3-.2.2-.4.5-.5.8l-.8,4.5c-.1.4,0,.8.3,1.1s.6.5,1,.5h8.3L42,62.1h-8.8c-.3,0-.6.1-.9.3s-.4.5-.5.8L31,67.7c-.1.4,0,.8.3,1.1s.6.5,1,.5h8.3L39,78.4v0v0c-.1.4,0,.8.3,1.1s.6.5,1,.5h4.5c.3,0,.6-.1.9-.3.2-.2.4-.5.5-.8l1.7-9.6Zm12.3-7.2h-11l2.6-14.3h11L60.2,62.1Zm-9.8-1h9l2.2-12.3h-9L50.4,61.1Z" fill="#fd1f1f"/></g></g></svg>
