<svg width="112" height="112" viewBox="0 0 112 112" fill="none" xmlns="http://www.w3.org/2000/svg">
<path fill-rule="evenodd" clip-rule="evenodd" d="M94.9834 65C90.9005 82.7574 74.9967 96 56 96C37.0033 96 21.0995 82.7574 17.0166 65H0.719391C5.02468 91.6491 28.1357 112 56 112C83.8643 112 106.975 91.6491 111.281 65H94.9834ZM17.5315 45C22.31 28.2574 37.7236 16 56 16C74.2764 16 89.69 28.2574 94.4685 45H110.92C105.809 19.3393 83.1629 0 56 0C28.8371 0 6.19105 19.3393 1.07998 45H17.5315Z" fill="#CC5478"/>
<path d="M34.3556 47.1946L34.3556 47.1946C34.1543 48.3219 35.0211 49.3571 36.1662 49.3571H43.9183L41.5459 62.6429H33.1368C32.7051 62.6429 32.2871 62.7948 31.9561 63.0719C31.6251 63.3491 31.4021 63.7339 31.3262 64.1589L30.529 68.6231L31.0212 68.711L30.529 68.6232C30.3278 69.7505 31.1945 70.7857 32.3396 70.7857H40.0918L38.5647 79.3374L39.0569 79.4253L38.5647 79.3375C38.3635 80.4648 39.2302 81.5 40.3753 81.5H44.9102C45.3419 81.5 45.7599 81.3481 46.0909 81.0709C46.4219 80.7938 46.6449 80.409 46.7208 79.984L48.3635 70.7857H58.3559L56.8289 79.3374C56.8289 79.3374 56.8289 79.3374 56.8289 79.3374C56.6275 80.4648 57.4943 81.5 58.6395 81.5H63.1743C63.6061 81.5 64.0241 81.3481 64.3551 81.0709C64.6861 80.7938 64.9091 80.409 64.985 79.984L66.6275 70.7857H75.0366C75.4683 70.7857 75.8863 70.6338 76.2174 70.3567C76.5484 70.0795 76.7714 69.6947 76.8472 69.2697L77.6444 64.8054C77.8457 63.6781 76.9789 62.6429 75.8338 62.6429H68.0817L70.4541 49.3571H78.8632C79.2949 49.3571 79.7129 49.2052 80.0439 48.9281C80.3749 48.6509 80.5979 48.2661 80.6738 47.8411L81.471 43.3768C81.6722 42.2495 80.8055 41.2143 79.6604 41.2143H71.9082L73.4353 32.6626C73.6365 31.5352 72.7698 30.5 71.6247 30.5H67.0898C66.6581 30.5 66.2401 30.6519 65.9091 30.9291C65.5781 31.2062 65.3551 31.591 65.2792 32.016L63.6366 41.2143H53.6441L55.1711 32.6626C55.1711 32.6626 55.1711 32.6626 55.1711 32.6626C55.3725 31.5352 54.5057 30.5 53.3605 30.5H48.8257C48.3939 30.5 47.9759 30.6519 47.6449 30.9291C47.3139 31.2062 47.0909 31.591 47.015 32.016C47.015 32.016 47.015 32.016 47.015 32.016L45.3725 41.2143H36.9634C36.5317 41.2143 36.1137 41.3662 35.7826 41.6433C35.4516 41.9205 35.2287 42.3053 35.1528 42.7303C35.1528 42.7303 35.1528 42.7303 35.1528 42.7303L34.3556 47.1946ZM62.1825 49.3571L59.8101 62.6429H49.8176L52.1901 49.3571H62.1825Z" fill="#CC5478" stroke="#CC5478"/>
</svg>
