<?xml version="1.0" encoding="utf-8"?>
<!-- Generator: Adobe Illustrator 26.3.1, SVG Export Plug-In . SVG Version: 6.00 Build 0)  -->
<svg version="1.1" id="Camada_2_00000165946487906590993780000009636339480664720817_"
	 xmlns="http://www.w3.org/2000/svg" xmlns:xlink="http://www.w3.org/1999/xlink" x="0px" y="0px" viewBox="0 0 339.2 79.7"
	 style="enable-background:new 0 0 339.2 79.7;" xml:space="preserve">
<style type="text/css">
	.st0{fill:#E03B3B;}
	.st1{fill:none;stroke:#332222;stroke-width:2.9136;stroke-miterlimit:10;}
</style>
<g id="Camada_2-2">
	<g id="Camada_1-2">
		<g transform="translate(4.16 65.85)">
			<g>
				<path class="st0" d="M2.5-50.7c2.5-0.8,4.9-1.6,7.2-2.3c2.2-0.7,4.6-1.4,7.1-2c2.5-0.6,4.8-1.1,7.1-1.5c1.7-0.3,3.5-0.4,5.4-0.4
					c3,0,5,0.1,6,0.3c1.4,0.3,2.8,0.7,4,1.3c1.3,0.6,2.4,1.4,3.4,2.4c1,1,1.8,2.2,2.4,3.6c0.3,0.6,0.4,1.2,0.4,1.8
					c0,2.4-1.3,5.2-3.9,8.7c-2.6,3.4-5.1,6.4-7.7,9c-2.6,2.6-4.5,4.4-5.8,5.5l5.7,19.9l-8.2,5.9L11-39.9c0,0-0.2,0.2-0.6,0.6
					S9.6-38.4,9-37.7c-0.6,0.6-0.9,1-1.1,1.2c-0.1,0-0.3-0.4-0.6-1.3c-0.3-0.9-0.8-2.2-1.4-3.8c-0.6-1.6-1.2-3.4-2-5.4
					C3.2-49,2.7-50.2,2.5-50.7L2.5-50.7z M22.9-42l2.6,9.3c1.3-1.3,2.9-3.1,4.8-5.4c1.9-2.3,2.9-3.9,2.9-5c0-0.4-0.2-0.6-0.5-0.7
					c-0.9-0.2-1.9-0.3-2.8-0.3C27.1-44.1,24.8-43.4,22.9-42L22.9-42z"/>
				<path class="st0" d="M69-34.8c1.5,0.8,2.7,1.9,3.6,3.2c0.9,1.3,1.6,2.9,2,4.6c0.4,1.7,0.6,3.4,0.6,5.3c0,1.5-0.1,3-0.4,4.4
					c-0.2,1.4-0.6,2.7-1,3.9s-0.9,2.2-1.5,3c-1.3,2-2.7,3.7-4.2,5.1c-1.5,1.4-3,2.6-4.6,3.4S60.5-0.5,59,0c-1.5,0.4-3.1,0.6-4.6,0.6
					c-1.8,0-3.5-0.3-5.1-0.8s-3-1.3-4.1-2.2c-1.9-1.6-3.3-3.6-4.4-6.3s-1.6-5.4-1.6-8.4c0-5.1,1.5-9.1,4.4-12.2
					c2.5-2.7,5.1-4.7,7.7-6c2.7-1.3,5.4-2,8.2-2c1.6,0,3.2,0.2,4.7,0.6C65.8-36.3,67.4-35.7,69-34.8L69-34.8z M67.2-29.5
					c-0.4,1.6-1.1,3-2.3,4.2c-1.2,1.2-2.3,1.8-3.5,1.8c-0.6,0-1.1-0.1-1.5-0.4c-0.6-0.5-0.9-1.4-0.9-2.6c0-1,0.3-1.9,1-2.9
					c0.6-0.9,1.7-1.7,3-2.2c-1.4,0-2.7,0.3-4,0.8c-1.3,0.5-2.4,1.2-3.3,2s-1.7,1.8-2.2,2.8c-0.6,1-0.8,2.1-0.8,3.1
					c0,2,0.9,3.5,2.7,4.7c1.7,1.1,3.3,1.6,4.8,1.6c1.5,0,2.8-0.5,4-1.5c1.2-1,2-2.3,2.6-3.8c0.6-1.6,0.9-3.1,0.9-4.6
					C67.6-27.7,67.4-28.6,67.2-29.5L67.2-29.5z"/>
				<path class="st0" d="M70.1-53.3l16-6.7l2.3,36.3l13.2-7.2l13.7,2L97.5-15.2l16.8,12.6l0.8,12.6L90.3-7.7L91,7.8L76.1,8
					l-2.8-54.6l-4.6,1L70.1-53.3L70.1-53.3z"/>
				<path class="st0" d="M137.1-18.1l7.6,9.2c-0.6,1.8-2,3.4-4.3,4.8s-5,2.6-8.1,3.5c-3.1,0.9-6.3,1.3-9.4,1.3
					c-2.8,0-5.2-0.4-7.4-1.1c-2.2-0.7-3.8-1.8-5-3.3c-2-2.6-3-5.8-3-9.8c0-3.1,0.6-6.2,1.7-9.3s2.4-5.2,3.6-6.4
					c1.5-1.4,3.2-2.7,5-3.6c1.8-1,3.7-1.7,5.6-2.2s3.9-0.7,5.9-0.7c2.7,0,5.2,0.4,7.6,1.3c2.4,0.8,4.5,2.1,6.3,3.7l-17.3,20.6
					c1.5,0,3-0.3,4.4-1c1.4-0.6,2.6-1.6,3.8-2.7C135.2-15.1,136.2-16.5,137.1-18.1L137.1-18.1z M112.3-48.1l16.8-9.3l7.2,11.1
					l-20.4,3.9L112.3-48.1L112.3-48.1z M128.4-25.5c-1-0.5-2.1-0.8-3.1-0.8c-1.1,0-2.2,0.2-3.3,0.7c-1.1,0.5-1.8,1-2.3,1.6
					c-1.3,1.7-2,3.5-2,5.5c0,0.7,0.1,1.4,0.2,2.1c0.1,0.7,0.4,1.6,0.8,2.8L128.4-25.5L128.4-25.5z"/>
				<path class="st0" d="M146.3-55.9l13.8-6.2l-0.2,21.1l10.3,0.3v12.1l-10.6,0.1c-0.4,3-0.6,5.8-0.6,8.4c0,2.2,0.1,4,0.4,5.4
					c0.2,1.2,0.7,2.1,1.6,2.7s1.8,0.9,2.9,0.9c1.2,0,2.3-0.4,3.3-1.1s1.4-1.7,1.4-3c0-0.2,0-0.6-0.1-1.1l10.3-6.7
					c0.4,0.8,1,2.2,1.7,4.1c0.7,1.9,1,4,1,6.3c0,2.7-0.7,5.2-2.2,7.5c-1.4,2.2-3.9,3.9-7.4,5.1c-2.5,0.8-4.8,1.2-7,1.2
					c-3.3,0-6.2-0.7-8.7-2.2s-4.6-3.2-6.2-5.2c-0.8-0.9-1.4-2.5-1.8-4.7c-0.4-2.2-0.7-4.5-0.8-6.8s-0.2-4.7-0.2-7.1v-3.6l-9.3,0.3
					l-2.3-14.2l11.7,0.8L146.3-55.9L146.3-55.9z"/>
				<path class="st0" d="M217.7-31.4l-11.1,7.2c-0.5-1.4-1.3-2.6-2.2-3.6c-0.9-1-1.9-1.5-2.8-1.5c-1.4,0-2.5,1.1-3.5,3.3
					c-0.9,2.1-1.3,5.8-1.3,11c0,3.7,0.2,8,0.6,13l-15.5,1.8c-0.9-6.5-1.3-12.3-1.3-17.3c0-0.8,0-2,0.1-3.5l-0.6-18.4l12.4-1.5
					l1.8,2.1c1.5-0.5,2.8-0.9,4.1-1.3c1.2-0.4,2.4-0.6,3.5-0.9c1.1-0.2,2.1-0.3,3.2-0.3c2.1,0,3.9,0.5,5.5,1.4
					c2,1.1,3.6,2.3,4.7,3.5C216.4-35.3,217.3-33.6,217.7-31.4L217.7-31.4z"/>
				<path class="st0" d="M233.1,5.2L218.9,6l-0.8-33.8l-4.7,1l1.5-7.7l16-6.7L233.1,5.2L233.1,5.2z M222.8-60.3
					c1.5,0,2.8,0.2,3.9,0.7s2,1.1,2.7,1.8s1.2,1.3,1.4,1.8c0.3,0.6,0.4,1.2,0.4,1.9c0,1-0.2,2.1-0.7,3.1c-0.4,1.1-1,2-1.6,2.7
					c-0.6,0.8-1.2,1.2-1.8,1.3c-1.1,0.2-1.9,0.3-2.5,0.3c-1.4,0-2.6-0.2-3.6-0.7c-1-0.5-1.8-1.2-2.5-2.1s-1-2-1.1-3.2
					c0-1.8,0.4-3.4,1.3-5C219.5-59.2,220.9-60.1,222.8-60.3L222.8-60.3z"/>
				<path class="st0" d="M228.8-40.2l17.2,0.8l7.5,19.9l7.5-19.3l15.9,1.5l-16.2,41l-14.9-0.5L228.8-40.2L228.8-40.2z"/>
				<path class="st0" d="M294.3,5.2L280.1,6l-0.8-33.8l-4.7,1l1.5-7.7l16-6.7L294.3,5.2L294.3,5.2z M284-60.3c1.5,0,2.8,0.2,3.9,0.7
					c1.1,0.5,2,1.1,2.7,1.8s1.2,1.3,1.4,1.8c0.3,0.6,0.4,1.2,0.4,1.9c0,1-0.2,2.1-0.7,3.1c-0.4,1.1-1,2-1.6,2.7
					c-0.6,0.8-1.2,1.2-1.8,1.3c-1.1,0.2-1.9,0.3-2.5,0.3c-1.4,0-2.6-0.2-3.6-0.7c-1-0.5-1.8-1.2-2.5-2.1c-0.6-0.9-1-2-1.1-3.2
					c0-1.8,0.4-3.4,1.3-5C280.7-59.2,282.1-60.1,284-60.3L284-60.3z"/>
				<path class="st0" d="M314.5-37.1l13.2-5.9l0.3,17.6c0.2,1.1,0.3,2.3,0.3,3.7c0,1.2,0,2.1-0.1,2.7l0.4,19.3l-14.2,0.8v-1.9
					c-2.3,0.9-4.6,1.4-7,1.4c-1.8,0-3.5-0.3-5.1-0.8c-1.6-0.5-3-1.3-4.1-2.2c-1.9-1.6-3.3-3.6-4.4-6.3c-1-2.6-1.6-5.4-1.6-8.4
					c0-5.1,1.5-9.1,4.4-12.2c2.5-2.6,5.1-4.6,7.8-6c2.7-1.4,5.4-2,8.2-2c0.8,0,1.4,0,1.8,0.1L314.5-37.1L314.5-37.1z M314.3-31.5
					c-1.2,0.1-2.3,0.5-3.4,1.1c-1.1,0.6-2.1,1.3-2.9,2.1c-0.8,0.8-1.4,1.7-1.9,2.6c-0.4,1-0.7,1.9-0.7,2.8c0,1.9,0.9,3.5,2.7,4.7
					c1.6,1.1,3.2,1.6,4.8,1.6c0.3,0,0.7,0,1.3-0.1v-6.7c-0.6,0-1.1-0.1-1.5-0.4c-0.6-0.5-0.9-1.5-0.9-2.9
					C311.8-28.9,312.6-30.5,314.3-31.5L314.3-31.5z"/>
			</g>
			<g>
				<path class="st1" d="M2.5-50.7c2.5-0.8,4.9-1.6,7.2-2.3c2.2-0.7,4.6-1.4,7.1-2c2.5-0.6,4.8-1.1,7.1-1.5c1.7-0.3,3.5-0.4,5.4-0.4
					c3,0,5,0.1,6,0.3c1.4,0.3,2.8,0.7,4,1.3c1.3,0.6,2.4,1.4,3.4,2.4c1,1,1.8,2.2,2.4,3.6c0.3,0.6,0.4,1.2,0.4,1.8
					c0,2.4-1.3,5.2-3.9,8.7c-2.6,3.4-5.1,6.4-7.7,9c-2.6,2.6-4.5,4.4-5.8,5.5l5.7,19.9l-8.2,5.9L11-39.9c0,0-0.2,0.2-0.6,0.6
					S9.6-38.4,9-37.7c-0.6,0.6-0.9,1-1.1,1.2c-0.1,0-0.3-0.4-0.6-1.3c-0.3-0.9-0.8-2.2-1.4-3.8c-0.6-1.6-1.2-3.4-2-5.4
					C3.2-49,2.7-50.2,2.5-50.7L2.5-50.7z M22.9-42l2.6,9.3c1.3-1.3,2.9-3.1,4.8-5.4c1.9-2.3,2.9-3.9,2.9-5c0-0.4-0.2-0.6-0.5-0.7
					c-0.9-0.2-1.9-0.3-2.8-0.3C27.1-44.1,24.8-43.4,22.9-42L22.9-42z"/>
				<path class="st1" d="M69-34.8c1.5,0.8,2.7,1.9,3.6,3.2c0.9,1.3,1.6,2.9,2,4.6c0.4,1.7,0.6,3.4,0.6,5.3c0,1.5-0.1,3-0.4,4.4
					c-0.2,1.4-0.6,2.7-1,3.9s-0.9,2.2-1.5,3c-1.3,2-2.7,3.7-4.2,5.1c-1.5,1.4-3,2.6-4.6,3.4S60.5-0.5,59,0c-1.5,0.4-3.1,0.6-4.6,0.6
					c-1.8,0-3.5-0.3-5.1-0.8s-3-1.3-4.1-2.2c-1.9-1.6-3.3-3.6-4.4-6.3s-1.6-5.4-1.6-8.4c0-5.1,1.5-9.1,4.4-12.2
					c2.5-2.7,5.1-4.7,7.7-6c2.7-1.3,5.4-2,8.2-2c1.6,0,3.2,0.2,4.7,0.6C65.8-36.3,67.4-35.7,69-34.8L69-34.8z M67.2-29.5
					c-0.4,1.6-1.1,3-2.3,4.2c-1.2,1.2-2.3,1.8-3.5,1.8c-0.6,0-1.1-0.1-1.5-0.4c-0.6-0.5-0.9-1.4-0.9-2.6c0-1,0.3-1.9,1-2.9
					c0.6-0.9,1.7-1.7,3-2.2c-1.4,0-2.7,0.3-4,0.8c-1.3,0.5-2.4,1.2-3.3,2s-1.7,1.8-2.2,2.8c-0.6,1-0.8,2.1-0.8,3.1
					c0,2,0.9,3.5,2.7,4.7c1.7,1.1,3.3,1.6,4.8,1.6c1.5,0,2.8-0.5,4-1.5c1.2-1,2-2.3,2.6-3.8c0.6-1.6,0.9-3.1,0.9-4.6
					C67.6-27.7,67.4-28.6,67.2-29.5L67.2-29.5z"/>
				<path class="st1" d="M70.1-53.3l16-6.7l2.3,36.3l13.2-7.2l13.7,2L97.5-15.2l16.8,12.6l0.8,12.6L90.3-7.7L91,7.8L76.1,8
					l-2.8-54.6l-4.6,1L70.1-53.3L70.1-53.3z"/>
				<path class="st1" d="M137.1-18.1l7.6,9.2c-0.6,1.8-2,3.4-4.3,4.8s-5,2.6-8.1,3.5c-3.1,0.9-6.3,1.3-9.4,1.3
					c-2.8,0-5.2-0.4-7.4-1.1c-2.2-0.7-3.8-1.8-5-3.3c-2-2.6-3-5.8-3-9.8c0-3.1,0.6-6.2,1.7-9.3s2.4-5.2,3.6-6.4
					c1.5-1.4,3.2-2.7,5-3.6c1.8-1,3.7-1.7,5.6-2.2s3.9-0.7,5.9-0.7c2.7,0,5.2,0.4,7.6,1.3c2.4,0.8,4.5,2.1,6.3,3.7l-17.3,20.6
					c1.5,0,3-0.3,4.4-1c1.4-0.6,2.6-1.6,3.8-2.7C135.2-15.1,136.2-16.5,137.1-18.1L137.1-18.1z M112.3-48.1l16.8-9.3l7.2,11.1
					l-20.4,3.9L112.3-48.1L112.3-48.1z M128.4-25.5c-1-0.5-2.1-0.8-3.1-0.8c-1.1,0-2.2,0.2-3.3,0.7c-1.1,0.5-1.8,1-2.3,1.6
					c-1.3,1.7-2,3.5-2,5.5c0,0.7,0.1,1.4,0.2,2.1c0.1,0.7,0.4,1.6,0.8,2.8L128.4-25.5L128.4-25.5z"/>
				<path class="st1" d="M146.3-55.9l13.8-6.2l-0.2,21.1l10.3,0.3v12.1l-10.6,0.1c-0.4,3-0.6,5.8-0.6,8.4c0,2.2,0.1,4,0.4,5.4
					c0.2,1.2,0.7,2.1,1.6,2.7s1.8,0.9,2.9,0.9c1.2,0,2.3-0.4,3.3-1.1s1.4-1.7,1.4-3c0-0.2,0-0.6-0.1-1.1l10.3-6.7
					c0.4,0.8,1,2.2,1.7,4.1c0.7,1.9,1,4,1,6.3c0,2.7-0.7,5.2-2.2,7.5c-1.4,2.2-3.9,3.9-7.4,5.1c-2.5,0.8-4.8,1.2-7,1.2
					c-3.3,0-6.2-0.7-8.7-2.2s-4.6-3.2-6.2-5.2c-0.8-0.9-1.4-2.5-1.8-4.7c-0.4-2.2-0.7-4.5-0.8-6.8s-0.2-4.7-0.2-7.1v-3.6l-9.3,0.3
					l-2.3-14.2l11.7,0.8L146.3-55.9L146.3-55.9z"/>
				<path class="st1" d="M217.7-31.4l-11.1,7.2c-0.5-1.4-1.3-2.6-2.2-3.6c-0.9-1-1.9-1.5-2.8-1.5c-1.4,0-2.5,1.1-3.5,3.3
					c-0.9,2.1-1.3,5.8-1.3,11c0,3.7,0.2,8,0.6,13l-15.5,1.8c-0.9-6.5-1.3-12.3-1.3-17.3c0-0.8,0-2,0.1-3.5l-0.6-18.4l12.4-1.5
					l1.8,2.1c1.5-0.5,2.8-0.9,4.1-1.3c1.2-0.4,2.4-0.6,3.5-0.9c1.1-0.2,2.1-0.3,3.2-0.3c2.1,0,3.9,0.5,5.5,1.4
					c2,1.1,3.6,2.3,4.7,3.5C216.4-35.3,217.3-33.6,217.7-31.4L217.7-31.4z"/>
				<path class="st1" d="M233.1,5.2L218.9,6l-0.8-33.8l-4.7,1l1.5-7.7l16-6.7L233.1,5.2L233.1,5.2z M222.8-60.3
					c1.5,0,2.8,0.2,3.9,0.7s2,1.1,2.7,1.8s1.2,1.3,1.4,1.8c0.3,0.6,0.4,1.2,0.4,1.9c0,1-0.2,2.1-0.7,3.1c-0.4,1.1-1,2-1.6,2.7
					c-0.6,0.8-1.2,1.2-1.8,1.3c-1.1,0.2-1.9,0.3-2.5,0.3c-1.4,0-2.6-0.2-3.6-0.7c-1-0.5-1.8-1.2-2.5-2.1s-1-2-1.1-3.2
					c0-1.8,0.4-3.4,1.3-5C219.5-59.2,220.9-60.1,222.8-60.3L222.8-60.3z"/>
				<path class="st1" d="M228.8-40.2l17.2,0.8l7.5,19.9l7.5-19.3l15.9,1.5l-16.2,41l-14.9-0.5L228.8-40.2L228.8-40.2z"/>
				<path class="st1" d="M294.3,5.2L280.1,6l-0.8-33.8l-4.7,1l1.5-7.7l16-6.7L294.3,5.2L294.3,5.2z M284-60.3c1.5,0,2.8,0.2,3.9,0.7
					c1.1,0.5,2,1.1,2.7,1.8s1.2,1.3,1.4,1.8c0.3,0.6,0.4,1.2,0.4,1.9c0,1-0.2,2.1-0.7,3.1c-0.4,1.1-1,2-1.6,2.7
					c-0.6,0.8-1.2,1.2-1.8,1.3c-1.1,0.2-1.9,0.3-2.5,0.3c-1.4,0-2.6-0.2-3.6-0.7c-1-0.5-1.8-1.2-2.5-2.1c-0.6-0.9-1-2-1.1-3.2
					c0-1.8,0.4-3.4,1.3-5C280.7-59.2,282.1-60.1,284-60.3L284-60.3z"/>
				<path class="st1" d="M314.5-37.1l13.2-5.9l0.3,17.6c0.2,1.1,0.3,2.3,0.3,3.7c0,1.2,0,2.1-0.1,2.7l0.4,19.3l-14.2,0.8v-1.9
					c-2.3,0.9-4.6,1.4-7,1.4c-1.8,0-3.5-0.3-5.1-0.8c-1.6-0.5-3-1.3-4.1-2.2c-1.9-1.6-3.3-3.6-4.4-6.3c-1-2.6-1.6-5.4-1.6-8.4
					c0-5.1,1.5-9.1,4.4-12.2c2.5-2.6,5.1-4.6,7.8-6c2.7-1.4,5.4-2,8.2-2c0.8,0,1.4,0,1.8,0.1L314.5-37.1L314.5-37.1z M314.3-31.5
					c-1.2,0.1-2.3,0.5-3.4,1.1c-1.1,0.6-2.1,1.3-2.9,2.1c-0.8,0.8-1.4,1.7-1.9,2.6c-0.4,1-0.7,1.9-0.7,2.8c0,1.9,0.9,3.5,2.7,4.7
					c1.6,1.1,3.2,1.6,4.8,1.6c0.3,0,0.7,0,1.3-0.1v-6.7c-0.6,0-1.1-0.1-1.5-0.4c-0.6-0.5-0.9-1.5-0.9-2.9
					C311.8-28.9,312.6-30.5,314.3-31.5L314.3-31.5z"/>
			</g>
		</g>
	</g>
</g>
</svg>
