<svg width="19" height="25" viewBox="0 0 19 25" fill="none" xmlns="http://www.w3.org/2000/svg">
<path d="M9.56903 0C5.67162 0 3.14725 1.59683 1.16537 4.44463C0.805848 4.96123 0.916688 5.66953 1.4182 6.0498L3.52455 7.64692C4.03104 8.03096 4.7517 7.94116 5.14823 7.44438C6.37133 5.91211 7.2786 5.02988 9.1891 5.02988C10.6912 5.02988 12.5493 5.99663 12.5493 7.45327C12.5493 8.55444 11.6402 9.11997 10.157 9.95151C8.42738 10.9212 6.13851 12.1281 6.13851 15.1471V15.625C6.13851 16.2722 6.66317 16.7969 7.31039 16.7969H10.849C11.4962 16.7969 12.0209 16.2722 12.0209 15.625V15.3431C12.0209 13.2503 18.1375 13.1632 18.1375 7.5C18.1375 3.23516 13.7136 0 9.56903 0ZM9.07973 18.2353C7.21469 18.2353 5.69735 19.7526 5.69735 21.6177C5.69735 23.4827 7.21469 25 9.07973 25C10.9448 25 12.4621 23.4827 12.4621 21.6176C12.4621 19.7526 10.9448 18.2353 9.07973 18.2353Z" fill="#5B5B5B"/>
</svg>
