<svg width="18" height="19" viewBox="0 0 18 19" fill="none" xmlns="http://www.w3.org/2000/svg">
<path d="M13.9093 1.42343L8.9375 6.39528L3.96566 1.42343C3.35557 0.813345 2.36604 0.813345 1.75595 1.42343L0.651097 2.52829C0.0410098 3.13837 0.0410098 4.12791 0.651097 4.73799L5.62294 9.70984L0.651097 14.6817C0.0410098 15.2918 0.0410098 16.2813 0.651097 16.8914L1.75595 17.9962C2.36604 18.6063 3.35557 18.6063 3.96566 17.9962L8.9375 13.0244L13.9093 17.9962C14.5194 18.6063 15.509 18.6063 16.1191 17.9962L17.2239 16.8914C17.834 16.2813 17.834 15.2918 17.2239 14.6817L12.2521 9.70984L17.2239 4.73799C17.834 4.12791 17.834 3.13837 17.2239 2.52829L16.1191 1.42343C15.509 0.813345 14.5194 0.813345 13.9093 1.42343Z" fill="#5B5B5B"/>
</svg>
